# xmcd
#
# Track frame offsets:
#	182
#	9672
#	19722
#	30815
#	41930
#	51542
#	62460
#	81507
#	93570
#	104615
#	115127
#	130490
#	150572
#	167240
#	185652
#	202077
#	213142
#	228872
#	247620
#	264445
#
# Disc length: 3785 seconds
#
# Revision: 1
# Processed by: cddbd v1.4PL0 Copyright (c) Steve Scherf et al.
# Submitted via: audiograbber 1.80.04
#
DISCID=0f0ec714
DTITLE=Elvis Presley - Elvis Country
DYEAR=1900
DGENRE=
TTITLE0=Blue Moon Of Kentucky
TTITLE1=How Do You Think I Feel
TTITLE2=I'm Counting On You
TTITLE3=Your Cheatin' Heart
TTITLE4=Anything That's Part Of You
TTITLE5=When My Blue Moon Turns To Gold Again
TTITLE6=Old Shep
TTITLE7=(Now And Then There's) A Fool Such As I
TTITLE8=How's The World Treating You
TTITLE9=There's Always Me
TTITLE10=Gentle On My Mind
TTITLE11=I'll Hold You In My Heart
TTITLE12=Long Black Limousine
TTITLE13=I Can Help
TTITLE14=Green Green Grass Of Home
TTITLE15=From A Jack To A King
TTITLE16=She Thinks I Still Care
TTITLE17=Faded Love
TTITLE18=Blue Eyes Cryin' In The Rain
TTITLE19=Funny How Time Slips Away
EXTD=
EXTT0=
EXTT1=
EXTT2=
EXTT3=
EXTT4=
EXTT5=
EXTT6=
EXTT7=
EXTT8=
EXTT9=
EXTT10=
EXTT11=
EXTT12=
EXTT13=
EXTT14=
EXTT15=
EXTT16=
EXTT17=
EXTT18=
EXTT19=
PLAYORDER=
